# xmcd
#
# Track frame offsets:
# 150
# 18147
# 32537
# 54478
#
# Disc length: 1065 seconds
#
# Revision: 1
# Processed by: cddbd v1.5.2PL0 Copyright (c) Steve Scherf et al.
# Submitted via: CedeCatalogueitor 2.6.0.6 http://personales.ya.com/cdcatalogueitor
#
DISCID=22042704
DTITLE=Rinocerose - Bitch [CD Single 2)
DYEAR=1900
DGENRE=
TTITLE0=Bitch 
TTITLE1=Bitch (Steve Dub Remix)
TTITLE2=Bitch (Vicarious Bliss ' Sori Of A Bitch' Mix)
TTITLE3=Bitch (jd Twitch's Optimo Mix)
EXTD=
EXTT0=
EXTT1=
EXTT2=
EXTT3=
PLAYORDER=
